<svg aria-hidden="true" style="width:0;height:0;position:absolute;overflow:hidden" xmlns="http://www.w3.org/2000/svg"><defs><symbol id="icon-dandruff" viewBox="0 0 32 32"><path d="M11.536.028C8.484.241 5.735 1.483 3.611 3.612 1.635 5.593.424 8.096.09 10.897a12.36 12.36 0 0 0 2.465 8.991 14.203 14.203 0 0 0 1.821 1.903c.792.66 1.608 1.186 2.558 1.648 1.347.655 2.638 1.013 4.301 1.194.459.048 1.806.04 2.32-.013a12.602 12.602 0 0 0 4.885-1.54l.246-.14.218.213c.12.115 2.019 1.961 4.221 4.098a1137.32 1137.32 0 0 0 4.128 4.003c.569.507 1.329.78 2.051.74.451-.025.732-.1 1.154-.306.331-.163.534-.313.81-.599a2.954 2.954 0 0 0 .544-3.318c-.155-.331-.336-.579-.652-.9-.15-.153-2.079-2.026-4.281-4.158a586.805 586.805 0 0 1-4.008-3.9c0-.013.063-.128.138-.256.339-.567.707-1.367.945-2.041.456-1.294.68-2.49.715-3.862a12.19 12.19 0 0 0-1.231-5.718 11.967 11.967 0 0 0-2.247-3.208 12.072 12.072 0 0 0-3.197-2.362C16.015.353 13.721-.124 11.536.029zm1.259 4.948c1.199.05 2.508.487 3.574 1.191 3.426 2.267 4.379 6.776 2.149 10.184a7.572 7.572 0 0 1-2.167 2.164c-2.237 1.47-5.146 1.592-7.481.319-1.846-1.006-3.175-2.706-3.681-4.707-.171-.675-.208-.998-.208-1.788 0-.592.008-.742.058-1.053a7.162 7.162 0 0 1 .652-2.119 7.134 7.134 0 0 1 1.444-2.031 7.356 7.356 0 0 1 4.251-2.119c.226-.033.89-.07 1.016-.058.043.003.218.013.394.018z"/></symbol></defs></svg>